Coordinates
version=1
nRows=8
nColumns=40
inDegrees=yes

Units are S.I. units (second, meters, Newtons, ...)
If the header above contains a line with 'inDegrees', this indicates whether rotational values are in degrees (yes) or radians (no).

endheader
time	pelvis_tilt	pelvis_list	pelvis_rotation	pelvis_tx	pelvis_ty	pelvis_tz	hip_flexion_r	hip_adduction_r	hip_rotation_r	knee_angle_r	knee_angle_r_beta	ankle_angle_r	subtalar_angle_r	mtp_angle_r	hip_flexion_l	hip_adduction_l	hip_rotation_l	knee_angle_l	knee_angle_l_beta	ankle_angle_l	subtalar_angle_l	mtp_angle_l	lumbar_extension	lumbar_bending	lumbar_rotation	arm_flex_r	arm_add_r	arm_rot_r	elbow_flex_r	pro_sup_r	wrist_flex_r	wrist_dev_r	arm_flex_l	arm_add_l	arm_rot_l	elbow_flex_l	pro_sup_l	wrist_flex_l	wrist_dev_l
      7.80000000	     -5.71041170	      6.79512906	     -9.94929336	      0.05084961	      1.31290853	      0.01352495	     44.93918138	     -4.57185904	      9.78320193	     76.21492598	      1.33020140	    -14.45864922	    -33.40021062	      0.00000000	     69.83353357	     -5.49946605	     -2.12128328	     76.77648887	      1.34000252	     -8.69695379	    -22.78485521	      0.00000000	    -36.74792620	     -7.17101437	     -2.43806871	     60.69302118	      9.41324808	    -27.79260227	     48.38649575	     84.89911411	      0.00000000	      0.00000000	     66.26483833	      1.59748164	    -25.97529505	     50.86316103	     84.98830661	      0.00000000	      0.00000000
      7.81700000	     -5.72592505	      6.64250444	    -10.55809950	      0.05082253	      1.31292849	      0.01419032	     46.39132146	     -3.76618015	     10.73273348	     79.89019161	      1.39434688	    -13.50526596	    -33.36638450	      0.00000000	     67.67119008	     -5.72302634	     -2.36898986	     73.15514011	      1.27679806	     -8.97207608	    -23.19405085	      0.00000000	    -36.63897736	     -7.24314321	     -1.90100495	     60.67679877	      9.41408924	    -27.65139968	     48.29616723	     84.95981826	      0.00000000	      0.00000000	     66.16311258	      1.49595440	    -25.95955098	     50.77280493	     85.04335470	      0.00000000	      0.00000000
      7.83300000	     -5.69396706	      6.69630324	    -11.43366538	      0.05071127	      1.31277537	      0.01504025	     48.05431437	     -2.86869277	     12.01553492	     83.65792636	      1.46010626	    -12.74277484	    -33.15233146	      0.00000000	     65.27830762	     -6.03796327	     -3.02844253	     69.48495445	      1.21274124	     -9.35851334	    -23.98226053	      0.00000000	    -36.52241557	     -7.63048660	     -1.22804414	     60.61292252	      9.42902175	    -27.54420857	     48.33760929	     85.01405563	      0.00000000	      0.00000000	     66.14889438	      1.30092348	    -25.76862617	     50.51635636	     85.08970158	      0.00000000	      0.00000000
      7.85000000	     -5.82414787	      5.89644996	    -11.64227834	      0.05073632	      1.31246052	      0.01516933	     49.64155219	     -1.76512970	     12.06549819	     87.18701980	      1.52170056	    -12.63309866	    -33.25618399	      0.00000000	     63.06396765	     -6.19112654	     -2.51736194	     66.09100690	      1.15350568	     -9.27199238	    -24.18062734	      0.00000000	    -36.41925986	     -6.84213662	     -0.62417975	     60.60962157	      9.48200856	    -27.44108663	     48.35529323	     85.02473485	      0.00000000	      0.00000000	     65.97546793	      1.19544541	    -25.80478882	     50.55569897	     85.07444525	      0.00000000	      0.00000000
      7.86700000	     -6.00336816	      5.57753747	    -12.16985409	      0.05070967	      1.31256430	      0.01573765	     51.37734024	     -0.68953657	     12.69714275	     90.43986416	      1.57847340	    -11.93190839	    -33.23859064	      0.00000000	     60.58992756	     -6.39339304	     -2.59626544	     62.18847512	      1.08539365	     -9.96268843	    -24.25819321	      0.00000000	    -36.16501933	     -6.68539674	      0.04346575	     60.49229148	      9.43177145	    -27.29199477	     48.27910092	     85.05630329	      0.00000000	      0.00000000	     65.78993148	      1.07592007	    -25.71806825	     50.42205319	     85.07090634	      0.00000000	      0.00000000
      7.88300000	     -5.90528849	      5.90530621	    -13.18964589	      0.05039678	      1.31229241	      0.01684949	     53.33651740	      0.30609899	     14.13228601	     93.96209202	      1.63994788	    -11.21416382	    -32.87839477	      0.00000000	     57.85209808	     -6.69803936	     -3.88494230	     58.47731778	      1.02062173	    -11.21309279	    -24.69213659	      0.00000000	    -36.05466652	     -7.45593168	      0.72881621	     60.32153683	      9.33978975	    -27.04494501	     48.47474199	     85.08782353	      0.00000000	      0.00000000	     65.82098010	      0.87382924	    -25.32899286	     50.12245934	     85.04274901	      0.00000000	      0.00000000
      7.90000000	     -5.98340460	      5.73783685	    -13.89627972	      0.05021859	      1.31206968	      0.01751247	     55.32186267	      1.48981395	     14.84223947	     97.06550944	      1.69411273	    -11.10042405	    -32.67871761	      0.00000000	     55.21441091	     -6.96676385	     -4.49389537	     54.88270121	      0.95788384	    -11.80712273	    -24.92306001	      0.00000000	    -35.86937008	     -7.55472101	      1.45935395	     60.20384563	      9.34328805	    -26.94151455	     48.57889905	     84.89746483	      0.00000000	      0.00000000	     65.74531755	      0.73409047	    -25.11483109	     49.91499514	     84.74126513	      0.00000000	      0.00000000
      7.91700000	     -6.26791282	      5.08982668	    -14.06367049	      0.05007840	      1.31156020	      0.01736341	     57.46902573	      2.55991659	     14.68210092	     99.94728025	      1.74440912	    -11.14982934	    -32.48029178	      0.00000000	     52.84274170	     -7.12030224	     -4.26735038	     51.55297817	      0.89976921	    -11.84076113	    -24.76501598	      0.00000000	    -35.61938268	     -6.86405127	      2.00579556	     60.20841702	      9.40288523	    -26.83432402	     48.57406298	     84.68800862	      0.00000000	      0.00000000	     65.59378186	      0.63732967	    -25.13873241	     49.90985500	     84.49005999	      0.00000000	      0.00000000
